<?xml version="1.0" encoding="utf-8"?>
<!-- Generator: Adobe Illustrator 25.1.0, SVG Export Plug-In . SVG Version: 6.00 Build 0)  -->
<svg version="1.1" id="_x32_" xmlns="http://www.w3.org/2000/svg" xmlns:xlink="http://www.w3.org/1999/xlink" x="0px" y="0px"
	 viewBox="0 0 512 512" style="enable-background:new 0 0 512 512;" xml:space="preserve">
<style type="text/css">
	.st0{fill:#4B4B4B;}
	.st1{fill:#4B4B4B;stroke:#000000;stroke-miterlimit:10;}
</style>
<g>
	<path class="st0" d="M327.4,89.8C270.3,62.2,222,0,222,0v41.5v325.2c-17.8-6.5-38.9-8.5-60.6-4.3c-52.2,10-88.1,51.2-80.2,91.9
		s56.5,65.6,108.6,55.5c46.3-8.9,79.7-42.3,81.2-78.3h0.3v-283C421.1,166.8,396.5,272.9,386.1,304
		C472.5,207.2,427.6,138.2,327.4,89.8z"/>
</g>
<rect x="17.6" y="42.4" class="st1" width="181.2" height="37.7"/>
<rect x="17.6" y="190.7" class="st1" width="181.2" height="37.7"/>
<rect x="17.6" y="116.5" class="st1" width="181.2" height="37.7"/>
<rect x="16.4" y="264.9" class="st1" width="181.2" height="37.7"/>
</svg>
